<svg width="54" height="40" viewBox="0 0 54 40" fill="none" xmlns="http://www.w3.org/2000/svg">
<path d="M28.875 39.625V28.375H36.375L27 17.125L17.625 28.375H25.125V39.625H15.75V39.5312C15.435 39.55 15.135 39.625 14.8125 39.625C11.0829 39.625 7.50604 38.1434 4.86881 35.5062C2.23158 32.869 0.75 29.2921 0.75 25.5625C0.75 18.3475 6.20625 12.4675 13.2075 11.6613C13.8213 8.45235 15.5342 5.55764 18.0514 3.475C20.5686 1.39236 23.7329 0.25198 27 0.25C30.2675 0.251829 33.4323 1.39207 35.9502 3.47466C38.4681 5.55725 40.1816 8.45204 40.7963 11.6613C47.7975 12.4675 53.2463 18.3475 53.2463 25.5625C53.2463 29.2921 51.7647 32.869 49.1274 35.5062C46.4902 38.1434 42.9134 39.625 39.1838 39.625C38.8688 39.625 38.565 39.55 38.2463 39.5312V39.625H28.875Z" fill="#5D697A"/>
</svg>
